<svg xmlns="http://www.w3.org/2000/svg" viewBox="0 0 512 512">
  <rect width="512" height="512" fill="#0A1628"/>
  <defs>
    <linearGradient id="flameGradMask" x1="0" y1="1" x2="0" y2="0">
      <stop offset="0%" stop-color="#C9A84C"/>
      <stop offset="100%" stop-color="#F5E7B8"/>
    </linearGradient>
  </defs>
  <path fill="url(#flameGradMask)" transform="translate(160,160) scale(8)" d="M12 2c1 3-2 4-2 7a3 3 0 1 0 6 0c0-1-.5-2-1-2 2 1 4 4 4 7a7 7 0 1 1-14 0c0-5 4-7 4-9 0 0 1.5 1 1.5 2.5C9.5 6 9 5 12 2z"/>
</svg>
